/* XPM */static char *_3b529a039ae4299dddb178be554275fjBl7Xk8VmEBIy4LE[] = {/* columns rows colors chars-per-pixel */"32 32 5 1 ","  c None",". c #222034","X c #BE5D1B","o c #CF651D","O c #D8BBA7",/* pixels */,"                                "
,"                                "
,"                                "
,"                                "
,"                                "
,"                                "
,"                                "
,"                                "
,"                                "
,"                                "
,"                                "
,"                                "
,"                                "
,"                                "
,"                                "
,"                                "
,"                                "
,"                                "
,"                                "
,"           . .                  "
,"          .X.o.                 "
,"         ...oOo.                "
,"        .oooooo.                "
,"       .ooooooo.                "
,"       .ooooooo.                "
,"       .o.oooooo.      ...      "
,"       .Oooooooo.......ooO.     "
,"       .OOoooo..OOOXXXX...      "
,"        ..XXXXXXXOXXX..         "
,"          .OXXXXXXXX.           "
,"           .X.......X.          "
"          .X. .X.X. .X.         "
;}
