/* XPM */static char *_d4819c816934f9beea57a22aea02b05MD0i6gLJtMRFvOjY[] = {/* columns rows colors chars-per-pixel */"32 32 5 1 ","  c None",". c #222034","X c #BE5D1B","o c #CF651D","O c #D8BBA7",/* pixels */,"                                "
,"                                "
,"                                "
,"                                "
,"                                "
,"                                "
,"                                "
,"                                "
,"                                "
,"                                "
,"                                "
,"                                "
,"                                "
,"                                "
,"                                "
,"                                "
,"                                "
,"                                "
,"                                "
,"           . .                  "
,"         ..X.o.                 "
,"        .oo.oOo.                "
,"       .ooooooo.                "
,"       .ooooooo.         .      "
,"       .o.oooooo.     ...O.     "
,"       .Oooooooo..  ..ooo.      "
,"       .OOoooo..OO..XX...       "
,"        ..XXXXXXXOOXX.          "
,"          .OXXXXXXXXX.          "
,"         .X.OXXXXXX.X.          "
,"        .X..X........X.         "
"            .X.   .X.           "
;}
