/* XPM */
static char *ec9a114e5328428ebc0c467a475c8906B8Bk2VG34y6iy5py[] = {
/* columns rows colors chars-per-pixel */
"32 32 5 1 ",
"  c None",
". c #222034",
"X c #BE5D1B",
"o c #CF651D",
"O c #D8BBA7",
/* pixels */
"                                ",
"                                ",
"                                ",
"                                ",
"                                ",
"                                ",
"                                ",
"                                ",
"                                ",
"                                ",
"                                ",
"                                ",
"                                ",
"                                ",
"                                ",
"                                ",
"                                ",
"                                ",
"                                ",
"                  . .           ",
"                 .o.X.          ",
"                .oOo...         ",
"                .oooooo.        ",
"                .ooooooo.       ",
"                .ooooooo.       ",
"               .oooooo.o.       ",
"      ..........oooooooO.       ",
"     .OoooXXXOOO..ooooOO.       ",
"      .....XXXOXXXXXXX..        ",
"         ..X.XXXXXXXX.          ",
"        .X..X.......XX.         ",
"        .X. .X.   .X.           "
};
