/* XPM */
static char *c8811262e6694806acefa9a5914ea1675mtGpedFtXCsVQap[] = {
/* columns rows colors chars-per-pixel */
"32 32 5 1 ",
"  c None",
". c #222034",
"X c #BE5D1B",
"o c #CF651D",
"O c #D8BBA7",
/* pixels */
"                                ",
"                                ",
"                                ",
"                                ",
"                                ",
"                                ",
"                                ",
"                                ",
"                                ",
"                                ",
"                                ",
"                                ",
"                                ",
"                                ",
"                                ",
"                                ",
"                                ",
"                                ",
"                  . .           ",
"                 .o.X.          ",
"                .oOo...         ",
"                .oooooo.        ",
"                .ooooooo.       ",
"                .ooooooo.       ",
"               .oooooo.o.       ",
"              ..oooooooO.       ",
"      ........OO..ooooOO.       ",
"     .OoooXXXOOXXXXXXX..        ",
"      .....XXXXXXXXXX.          ",
"          .XXXXXXXXXX.          ",
"          .XX........X.         ",
"          .X.   .X. .X.         "
};
