/* XPM */
static char *f17c6b1898714934a68bcd59f1ff833b0N5idlfLFoRs7EU2[] = {
/* columns rows colors chars-per-pixel */
"32 32 5 1 ",
"  c None",
". c #222034",
"X c #BE5D1B",
"o c #CF651D",
"O c #D8BBA7",
/* pixels */
"                                ",
"                                ",
"                                ",
"                                ",
"                                ",
"                                ",
"                                ",
"                                ",
"                                ",
"                                ",
"                                ",
"                                ",
"                                ",
"                                ",
"                                ",
"                                ",
"                                ",
"                                ",
"                  . .           ",
"                 .o.X.          ",
"                .oOo...         ",
"                .oooooo.        ",
"                .ooooooo.       ",
"                .ooooooo.       ",
"      .        .oooooo.o.       ",
"     .O...    ..oooooooO.       ",
"      .ooo....OO..ooooOO.       ",
"       ...XXXOOXXXXXXX..        ",
"          .XXXXXXXXXO.          ",
"          .X.XXXXXXO.           ",
"          ..X....XX...          ",
"          .X.   .X. .X.         "
};
