/* XPM */
static char *_b048fb836ce47c3fdcc29b875ad1090ggGjEyr0Cwe0gq6D[] = {
/* columns rows colors chars-per-pixel */
"32 32 5 1 ",
"  c None",
". c #222034",
"X c #BE5D1B",
"o c #CF651D",
"O c #D8BBA7",
/* pixels */
"                                ",
"                                ",
"                                ",
"                                ",
"                                ",
"                                ",
"                                ",
"                                ",
"                                ",
"                                ",
"                                ",
"                                ",
"                                ",
"                                ",
"                                ",
"                                ",
"                                ",
"                                ",
"                                ",
"                  . .           ",
"                 .o.X.          ",
"                .oOo...         ",
"                .oooooo.        ",
"                .ooooooo.       ",
"                .ooooooo.       ",
"      .        .oooooo.o.       ",
"     .O.........oooooooO.       ",
"      .oooXXXOOO..ooooOO.       ",
"       ....XXXOXXXXXXX..        ",
"          .XX.XXXXXOO.          ",
"          ...X...X.O.           ",
"         .X. .X.X. .X.          "
};
