/* XPM */
static char *_1d8e4f60a4442d8aa0fa57858e99d19BZY86bNkhk0cIQ2j[] = {
/* columns rows colors chars-per-pixel */
"32 32 5 1 ",
"  c None",
". c #222034",
"X c #BE5D1B",
"o c #CF651D",
"O c #D8BBA7",
/* pixels */
"                                ",
"                                ",
"                                ",
"                                ",
"                                ",
"                                ",
"                                ",
"                                ",
"                                ",
"                                ",
"                                ",
"                                ",
"                                ",
"                                ",
"                                ",
"                                ",
"                                ",
"                                ",
"                  . .           ",
"                 .o.X.          ",
"                .oOo...         ",
"                .oooooo.        ",
"                .ooooooo.       ",
"                .ooooooo.       ",
"               .oooooo.o.       ",
"      .       ..oooooooO.       ",
"     .O.......OO..ooooOO.       ",
"      .oooXXXOOXXXXXXX..        ",
"       ....XXXXXXXXXX.          ",
"         ..X.XXXXXXXXX.         ",
"        .X.XX........XX.        ",
"           .X.   .X.            "
};
