/* XPM */
static char *_60edd51707f471ac364713a4ca33bdcj1jA8NLhw6N9yflY[] = {
/* columns rows colors chars-per-pixel */
"32 32 5 1 ",
"  c None",
". c #222034",
"X c #BE5D1B",
"o c #CF651D",
"O c #D8BBA7",
/* pixels */
"                                ",
"                                ",
"                                ",
"                                ",
"                                ",
"                                ",
"                                ",
"                                ",
"                                ",
"                                ",
"                                ",
"                                ",
"                                ",
"                                ",
"                                ",
"                                ",
"                                ",
"                                ",
"                                ",
"                  . .           ",
"                 .o.X.          ",
"                .oOo...         ",
"                .oooooo.        ",
"                .ooooooo.       ",
"     ....       .ooooooo.       ",
"    .Oooo.     .oooooo.o.       ",
"     ....X......oooooooO.       ",
"         .XXXOOO..ooooOO.       ",
"          .XXXOXXXXXXX..        ",
"          .XXXXXXXXOO.          ",
"         .X........X.           ",
"        .X. .X.   .X.           "
};
